<svg width="48" height="48" viewBox="0 0 48 48" fill="none" xmlns="http://www.w3.org/2000/svg">
<rect width="48" height="48" fill="white"/>
<path d="M37.5 37.5C37.5 37.8961 37.3211 38.395 36.7478 38.9824C36.1678 39.5766 35.2552 40.1803 34.0102 40.7199C31.525 41.7968 27.987 42.5 24 42.5C20.013 42.5 16.475 41.7968 13.9898 40.7199C12.7448 40.1803 11.8322 39.5766 11.2522 38.9824C10.6789 38.395 10.5 37.8961 10.5 37.5C10.5 37.1039 10.6789 36.605 11.2522 36.0176C11.8322 35.4234 12.7448 34.8197 13.9898 34.2801C16.475 33.2032 20.013 32.5 24 32.5C27.987 32.5 31.525 33.2032 34.0102 34.2801C35.2552 34.8197 36.1678 35.4234 36.7478 36.0176C37.3211 36.605 37.5 37.1039 37.5 37.5Z" stroke="#081348" stroke-width="3"/>
<path d="M34.5 12.8824C34.5 14.0721 34.1959 16.1903 33.596 18.7697C33.0029 21.3197 32.1441 24.2203 31.0868 26.9453C30.0237 29.6856 28.7886 32.173 27.4678 33.9471C26.0915 35.7957 24.9038 36.5 24 36.5C23.0962 36.5 21.9085 35.7957 20.5322 33.9471C19.2114 32.173 17.9763 29.6856 16.9132 26.9453C15.8559 24.2203 14.9971 21.3197 14.404 18.7697C13.8041 16.1903 13.5 14.0721 13.5 12.8824C13.5 8.5122 17.9154 4.5 24 4.5C30.0846 4.5 34.5 8.5122 34.5 12.8824Z" fill="white" stroke="#081348" stroke-width="3"/>
<circle cx="24" cy="15" r="3.5" fill="white" stroke="#FF249B" stroke-width="3"/>
</svg>
