<svg width="48" height="48" viewBox="0 0 48 48" fill="none" xmlns="http://www.w3.org/2000/svg">
<mask id="path-1-inside-1" fill="white">
<path fill-rule="evenodd" clip-rule="evenodd" d="M17.2878 9C16.5035 9 15.7916 9.45841 15.4671 10.1724L13.2727 15H8C3.58172 15 0 18.5817 0 23V34C0 38.4183 3.58172 42 8 42H40C44.4183 42 48 38.4183 48 34V23C48 18.5817 44.4183 15 40 15H35.7273L33.5329 10.1724C33.2084 9.45841 32.4965 9 31.7122 9H17.2878Z"/>
</mask>
<path d="M15.4671 10.1724L18.1982 11.4138V11.4138L15.4671 10.1724ZM13.2727 15V18H15.2045L16.0038 16.2414L13.2727 15ZM35.7273 15L32.9962 16.2414L33.7955 18H35.7273V15ZM33.5329 10.1724L30.8018 11.4138V11.4138L33.5329 10.1724ZM18.1982 11.4138C18.0359 11.7708 17.68 12 17.2878 12V6C15.3271 6 13.5473 7.14601 12.736 8.93099L18.1982 11.4138ZM16.0038 16.2414L18.1982 11.4138L12.736 8.93099L10.5416 13.7586L16.0038 16.2414ZM8 18H13.2727V12H8V18ZM3 23C3 20.2386 5.23858 18 8 18V12C1.92487 12 -3 16.9249 -3 23H3ZM3 34V23H-3V34H3ZM8 39C5.23858 39 3 36.7614 3 34H-3C-3 40.0751 1.92487 45 8 45V39ZM40 39H8V45H40V39ZM45 34C45 36.7614 42.7614 39 40 39V45C46.0751 45 51 40.0751 51 34H45ZM45 23V34H51V23H45ZM40 18C42.7614 18 45 20.2386 45 23H51C51 16.9249 46.0751 12 40 12V18ZM35.7273 18H40V12H35.7273V18ZM30.8018 11.4138L32.9962 16.2414L38.4584 13.7586L36.264 8.93099L30.8018 11.4138ZM31.7122 12C31.32 12 30.9641 11.7708 30.8018 11.4138L36.264 8.93099C35.4527 7.14601 33.6729 6 31.7122 6V12ZM17.2878 12H31.7122V6H17.2878V12Z" fill="#081348" mask="url(#path-1-inside-1)"/>
<circle cx="24" cy="28" r="6.5" stroke="#FF249B" stroke-width="3"/>
<path d="M35.5 22.5H41.5" stroke="#081348" stroke-width="3" stroke-linecap="round"/>
</svg>
