<svg width="34" height="33" viewBox="0 0 34 33" fill="none" xmlns="http://www.w3.org/2000/svg">
<path d="M16.0489 0.806689C16.3483 -0.114621 17.6517 -0.114621 17.9511 0.806689L21.2658 11.0083C21.3996 11.4203 21.7836 11.6993 22.2168 11.6993H32.9434C33.9122 11.6993 34.3149 12.9389 33.5312 13.5083L24.8532 19.8133C24.5027 20.0679 24.3561 20.5193 24.4899 20.9313L27.8046 31.1329C28.104 32.0542 27.0495 32.8204 26.2658 32.251L17.5878 25.946C17.2373 25.6914 16.7627 25.6914 16.4122 25.946L7.73419 32.251C6.95048 32.8204 5.896 32.0542 6.19535 31.1329L9.51006 20.9313C9.64393 20.5193 9.49728 20.0679 9.14679 19.8133L0.468768 13.5083C-0.314945 12.9389 0.0878302 11.6993 1.05655 11.6993H11.7832C12.2164 11.6993 12.6004 11.4203 12.7342 11.0083L16.0489 0.806689Z" fill="#FEDA7A"/>
</svg>
